Coordinates
version=1
nRows=9
nColumns=36
inDegrees=yes

Units are S.I. units (second, meters, Newtons, ...)
If the header above contains a line with 'inDegrees', this indicates whether rotational values are in degrees (yes) or radians (no).

endheader
time	pelvis_tilt	pelvis_list	pelvis_rotation	pelvis_tx	pelvis_ty	pelvis_tz	hip_flexion_r	hip_adduction_r	hip_rotation_r	knee_angle_r	knee_angle_r_beta	ankle_angle_r	subtalar_angle_r	mtp_angle_r	hip_flexion_l	hip_adduction_l	hip_rotation_l	knee_angle_l	knee_angle_l_beta	ankle_angle_l	subtalar_angle_l	mtp_angle_l	lumbar_extension	lumbar_bending	lumbar_rotation	arm_flex_r	arm_add_r	arm_rot_r	elbow_flex_r	pro_sup_r	arm_flex_l	arm_add_l	arm_rot_l	elbow_flex_l	pro_sup_l
      0.00000000	    -23.43406385	      0.92163750	     -6.15630847	     -0.93969350	      1.16437883	     -0.09870054	     48.96142326	     -2.03247288	      1.09293754	     36.88511267	      0.64376666	      5.30344478	     -9.65088771	     -5.88902026	     47.32386363	     -7.35943360	     -7.92756268	     38.35909148	      0.66949244	      3.40685406	     -8.17633660	     -5.88902026	    -23.59200711	      0.77747581	      2.57896983	      0.27302130	    -26.32422327	     18.35730258	     26.62449613	     61.93134693	     -1.00761656	    -17.35205503	     17.97420288	     26.44856320	     59.63099041
      0.00416670	    -25.44324017	      1.78561062	     -5.90699235	     -0.93789305	      1.16201510	     -0.09772002	     50.84452699	     -2.33524620	      1.91939090	     36.73543481	      0.64115429	     11.24598693	     -2.69170258	     -6.03566977	     49.94283926	     -6.24597275	     -7.86384596	     39.32249413	      0.68630699	      8.60610574	     -1.26491788	     -6.03566977	    -21.59196139	      0.40293406	      2.17175439	      1.90214597	    -23.59918386	     22.75606947	     18.03877365	     62.35497408	     -1.01598520	    -16.66604265	     19.39198119	     21.61517063	     58.52179131
      0.00833330	    -26.12597010	      2.58100884	     -6.16358901	     -0.93806202	      1.16191971	     -0.09711355	     51.58529534	     -3.01629112	      1.52366063	     36.70210017	      0.64057249	     12.45166277	     -1.44225635	     -6.03826563	     49.85366184	     -6.07797378	     -8.36816976	     38.22743394	      0.66719459	      8.89818394	     -0.01592439	     -6.03826563	    -21.09079273	     -0.57558461	      2.60271997	      1.28866533	    -23.91481605	     24.82837076	     17.33386523	     62.57884888	     -0.55687465	    -16.74230691	     20.32800527	     20.74518086	     58.33347998
      0.01250000	    -26.54390279	      2.27854912	     -5.95036515	     -0.93750506	      1.16213234	     -0.09710765	     51.93363984	     -3.13988126	      0.67110585	     37.23219554	      0.64982440	     13.67024393	      0.02388555	     -6.44097249	     50.30116358	     -6.06328016	     -7.64849336	     38.34391027	      0.66922748	      9.73088144	      0.12907425	     -6.44097249	    -20.68810177	     -0.15982124	      2.41532304	      2.21653172	    -25.34036040	     38.53678796	     16.66176181	     60.95218883	      0.09281227	    -17.30717332	     27.20217676	     19.25341265	     55.04900218
      0.01666670	    -26.87400298	      2.22190128	     -5.73476783	     -0.93746474	      1.16194677	     -0.09734706	     52.05541176	     -3.19640762	      0.52850638	     36.95226950	      0.64493877	     14.23684189	      1.02601585	     -6.50833957	     50.32396077	     -5.93096763	     -7.62648092	     37.64917387	      0.65710204	      9.93179517	      0.85983046	     -6.50833957	    -20.41368284	      0.04992877	      2.60153040	      2.01053653	    -25.58934344	     38.76197475	     17.04381759	     60.51578935	     -0.09981991	    -17.50703362	     27.02725428	     19.76152879	     54.93981878
      0.02083330	    -26.93674103	      2.38761638	     -5.53139047	     -0.93724854	      1.16289184	     -0.09717932	     52.22981620	     -3.63906387	     -0.05270766	     37.37742101	      0.65235906	     14.83529000	      2.17758530	     -7.01787839	     50.23962111	     -5.71054149	     -7.85089384	     37.29423311	      0.65090716	     10.45834419	      2.10584979	     -7.01787839	    -20.27750006	     -0.01053666	      2.05198226	      3.53576029	    -26.00107664	     51.83536397	     16.74975495	     43.15747759	      0.07628356	    -17.97915836	     31.55896375	     19.73957871	     42.53284986
      0.02500000	    -27.00891993	      2.37192330	     -5.25512883	     -0.93760048	      1.16282066	     -0.09763010	     52.23749332	     -3.88626719	     -0.39293943	     37.39331703	      0.65263650	     14.88019806	      2.21535113	     -7.14125003	     50.33117736	     -5.52938364	     -7.73012370	     37.14462226	      0.64829596	     10.59945361	      2.55296789	     -7.14125003	    -20.12240724	      0.10003803	      2.08113776	      3.25894364	    -25.95366589	     51.37739890	     16.89871633	     41.72862693	      0.35281586	    -18.14723420	     31.81667578	     19.65762241	     43.79942864
      0.02916670	    -27.15270265	      2.40507269	     -5.14863212	     -0.93730739	      1.16318398	     -0.09747066	     52.40949933	     -4.03411788	     -0.62164775	     37.51672539	      0.65479038	     14.67062831	      2.17074824	     -7.17765390	     50.49882190	     -5.45770107	     -7.53996159	     36.95001474	      0.64489942	     10.42831895	      2.96110596	     -7.17765390	    -20.02941050	      0.01961162	      2.10088557	      3.23871984	    -26.03342247	     51.40433181	     17.04012358	     43.01445292	      0.42601235	    -18.26915021	     31.43455082	     19.83507117	     44.92803835
      0.03333330	    -27.27420106	      2.44304128	     -5.06391647	     -0.93763929	      1.16312153	     -0.09778902	     52.50237063	     -4.15983142	     -0.79546999	     37.48876108	      0.65430231	     14.41444311	      2.12895710	     -7.19262887	     50.64074662	     -5.35979749	     -7.35967418	     36.73937286	      0.64122302	     10.13637835	      3.48090607	     -7.19262887	    -19.87081600	     -0.08333201	      2.05467943	      3.13484656	    -26.12390038	     51.65210416	     17.20852615	     43.67114762	      0.55498232	    -18.31956506	     31.25918971	     19.81782902	     45.48378374
